<svg id="visual" viewBox="0 0 2000 540" width="2000" height="540" xmlns="http://www.w3.org/2000/svg" xmlns:xlink="http://www.w3.org/1999/xlink" version="1.1"><path d="M0 120L66.7 109.7C133.3 99.3 266.7 78.7 400 66.3C533.3 54 666.7 50 800 59.2C933.3 68.3 1066.7 90.7 1200 92C1333.3 93.3 1466.7 73.7 1600 75C1733.3 76.3 1866.7 98.7 1933.3 109.8L2000 121L2000 0L1933.3 0C1866.7 0 1733.3 0 1600 0C1466.7 0 1333.3 0 1200 0C1066.7 0 933.3 0 800 0C666.7 0 533.3 0 400 0C266.7 0 133.3 0 66.7 0L0 0Z" fill="#004cbb" stroke-linecap="round" stroke-linejoin="miter"></path></svg>