<svg id="visual" viewBox="0 0 2000 540" width="2000" height="540" xmlns="http://www.w3.org/2000/svg" xmlns:xlink="http://www.w3.org/1999/xlink" version="1.1"><path d="M0 50L30.3 56.2C60.7 62.3 121.3 74.7 182 75.5C242.7 76.3 303.3 65.7 363.8 61.2C424.3 56.7 484.7 58.3 545.2 55.7C605.7 53 666.3 46 727 41.5C787.7 37 848.3 35 909 37.7C969.7 40.3 1030.3 47.7 1091 50.5C1151.7 53.3 1212.3 51.7 1273 50.8C1333.7 50 1394.3 50 1454.8 56.2C1515.3 62.3 1575.7 74.7 1636.2 80C1696.7 85.3 1757.3 83.7 1818 83.7C1878.7 83.7 1939.3 85.3 1969.7 86.2L2000 87L2000 0L1969.7 0C1939.3 0 1878.7 0 1818 0C1757.3 0 1696.7 0 1636.2 0C1575.7 0 1515.3 0 1454.8 0C1394.3 0 1333.7 0 1273 0C1212.3 0 1151.7 0 1091 0C1030.3 0 969.7 0 909 0C848.3 0 787.7 0 727 0C666.3 0 605.7 0 545.2 0C484.7 0 424.3 0 363.8 0C303.3 0 242.7 0 182 0C121.3 0 60.7 0 30.3 0L0 0Z" fill="#6198ff"></path><path d="M0 195L30.3 185.2C60.7 175.3 121.3 155.7 182 150.3C242.7 145 303.3 154 363.8 164.8C424.3 175.7 484.7 188.3 545.2 184.7C605.7 181 666.3 161 727 148.3C787.7 135.7 848.3 130.3 909 132.2C969.7 134 1030.3 143 1091 143C1151.7 143 1212.3 134 1273 140.3C1333.7 146.7 1394.3 168.3 1454.8 170.2C1515.3 172 1575.7 154 1636.2 146.8C1696.7 139.7 1757.3 143.3 1818 147.8C1878.7 152.3 1939.3 157.7 1969.7 160.3L2000 163L2000 85L1969.7 84.2C1939.3 83.3 1878.7 81.7 1818 81.7C1757.3 81.7 1696.7 83.3 1636.2 78C1575.7 72.7 1515.3 60.3 1454.8 54.2C1394.3 48 1333.7 48 1273 48.8C1212.3 49.7 1151.7 51.3 1091 48.5C1030.3 45.7 969.7 38.3 909 35.7C848.3 33 787.7 35 727 39.5C666.3 44 605.7 51 545.2 53.7C484.7 56.3 424.3 54.7 363.8 59.2C303.3 63.7 242.7 74.3 182 73.5C121.3 72.7 60.7 60.3 30.3 54.2L0 48Z" fill="#3c80ff"></path><path d="M0 266L30.3 261.5C60.7 257 121.3 248 182 240.7C242.7 233.3 303.3 227.7 363.8 235.7C424.3 243.7 484.7 265.3 545.2 270.8C605.7 276.3 666.3 265.7 727 258.5C787.7 251.3 848.3 247.7 909 247.7C969.7 247.7 1030.3 251.3 1091 240.5C1151.7 229.7 1212.3 204.3 1273 208.8C1333.7 213.3 1394.3 247.7 1454.8 254C1515.3 260.3 1575.7 238.7 1636.2 224.2C1696.7 209.7 1757.3 202.3 1818 202.3C1878.7 202.3 1939.3 209.7 1969.7 213.3L2000 217L2000 161L1969.7 158.3C1939.3 155.7 1878.7 150.3 1818 145.8C1757.3 141.3 1696.7 137.7 1636.2 144.8C1575.7 152 1515.3 170 1454.8 168.2C1394.3 166.3 1333.7 144.7 1273 138.3C1212.3 132 1151.7 141 1091 141C1030.3 141 969.7 132 909 130.2C848.3 128.3 787.7 133.7 727 146.3C666.3 159 605.7 179 545.2 182.7C484.7 186.3 424.3 173.7 363.8 162.8C303.3 152 242.7 143 182 148.3C121.3 153.7 60.7 173.3 30.3 183.2L0 193Z" fill="#0066ff"></path><path d="M0 433L30.3 433.8C60.7 434.7 121.3 436.3 182 440C242.7 443.7 303.3 449.3 363.8 451.2C424.3 453 484.7 451 545.2 432C605.7 413 666.3 377 727 360C787.7 343 848.3 345 909 352.2C969.7 359.3 1030.3 371.7 1091 368.8C1151.7 366 1212.3 348 1273 356.2C1333.7 364.3 1394.3 398.7 1454.8 412.2C1515.3 425.7 1575.7 418.3 1636.2 417.5C1696.7 416.7 1757.3 422.3 1818 427.8C1878.7 433.3 1939.3 438.7 1969.7 441.3L2000 444L2000 215L1969.7 211.3C1939.3 207.7 1878.7 200.3 1818 200.3C1757.3 200.3 1696.7 207.7 1636.2 222.2C1575.7 236.7 1515.3 258.3 1454.8 252C1394.3 245.7 1333.7 211.3 1273 206.8C1212.3 202.3 1151.7 227.7 1091 238.5C1030.3 249.3 969.7 245.7 909 245.7C848.3 245.7 787.7 249.3 727 256.5C666.3 263.7 605.7 274.3 545.2 268.8C484.7 263.3 424.3 241.7 363.8 233.7C303.3 225.7 242.7 231.3 182 238.7C121.3 246 60.7 255 30.3 259.5L0 264Z" fill="#0059dd"></path><path d="M0 541L30.3 541C60.7 541 121.3 541 182 541C242.7 541 303.3 541 363.8 541C424.3 541 484.7 541 545.2 541C605.7 541 666.3 541 727 541C787.7 541 848.3 541 909 541C969.7 541 1030.3 541 1091 541C1151.7 541 1212.3 541 1273 541C1333.7 541 1394.3 541 1454.8 541C1515.3 541 1575.7 541 1636.2 541C1696.7 541 1757.3 541 1818 541C1878.7 541 1939.3 541 1969.7 541L2000 541L2000 442L1969.7 439.3C1939.3 436.7 1878.7 431.3 1818 425.8C1757.3 420.3 1696.7 414.7 1636.2 415.5C1575.7 416.3 1515.3 423.7 1454.8 410.2C1394.3 396.7 1333.7 362.3 1273 354.2C1212.3 346 1151.7 364 1091 366.8C1030.3 369.7 969.7 357.3 909 350.2C848.3 343 787.7 341 727 358C666.3 375 605.7 411 545.2 430C484.7 449 424.3 451 363.8 449.2C303.3 447.3 242.7 441.7 182 438C121.3 434.3 60.7 432.7 30.3 431.8L0 431Z" fill="#004cbb"></path></svg>